<svg width="32" height="32" viewBox="0 0 64 64" fill="none" xmlns="http://www.w3.org/2000/svg">
  <rect width="64" height="64" rx="16" fill="#11100B"/>
  <path d="M10 32H16" stroke="#FFD800" stroke-width="4" stroke-linecap="round"/>
  <circle cx="10" cy="32" r="3.5" fill="#FFD800"/>
  <path d="M48 32H54" stroke="#FFD800" stroke-width="4" stroke-linecap="round"/>
  <circle cx="54" cy="32" r="3.5" fill="#FFD800"/>
  <path d="M32 10L49 17V30.5C49 41.25 41.95 49.3 32 53.5C22.05 49.3 15 41.25 15 30.5V17L32 10Z" fill="#FFD800"/>
  <path d="M24 30V26.5C24 22.08 27.58 18.5 32 18.5C36.42 18.5 40 22.08 40 26.5V30" stroke="#11100B" stroke-width="4" stroke-linecap="round"/>
  <rect x="22" y="29" width="20" height="17" rx="5" fill="#11100B"/>
  <circle cx="32" cy="36" r="3" fill="#FFD800"/>
  <path d="M32 38.5V42" stroke="#FFD800" stroke-width="3" stroke-linecap="round"/>
</svg>
